<?xml version="1.0" encoding="utf-8"?>
<!-- Generator: Adobe Illustrator 16.0.0, SVG Export Plug-In . SVG Version: 6.00 Build 0)  -->
<!DOCTYPE svg PUBLIC "-//W3C//DTD SVG 1.1//EN" "http://www.w3.org/Graphics/SVG/1.1/DTD/svg11.dtd">
<svg version="1.1" id="Layer_1" xmlns="http://www.w3.org/2000/svg" xmlns:xlink="http://www.w3.org/1999/xlink" x="0px" y="0px"
	 width="145.25px" height="37.875px" viewBox="0 0 145.25 37.875" enable-background="new 0 0 145.25 37.875" xml:space="preserve">
<g>
	<path fill-rule="evenodd" clip-rule="evenodd" fill="#E1EDF5" d="M86.438,19.327c-0.537,0-0.953-0.054-1.244-0.161
		c-0.43-0.154-0.645-0.43-0.645-0.83c0-0.154,0.084-0.469,0.253-0.945c0.169-0.477,0.422-1.152,0.76-2.028h2.592h2.593
		c0.339,0.769,0.561,1.299,0.668,1.59c0.262,0.691,0.392,1.183,0.392,1.475c0,0.369-0.127,0.611-0.379,0.726
		c-0.254,0.115-0.742,0.173-1.465,0.173v0.576h7.467v-0.576c-0.522,0-0.952-0.23-1.291-0.691c-0.261-0.353-0.668-1.19-1.221-2.512
		L89.78,4.003h-0.645l-0.98,2.417l-4.136,10.21c-0.4,0.999-0.707,1.644-0.922,1.936c-0.307,0.415-0.753,0.668-1.337,0.76v0.576
		h4.678V19.327z M88.075,8.869l0.081,0.194l2.247,5.402h-2.247h-2.246L88.075,8.869z"/>
	<path fill-rule="evenodd" clip-rule="evenodd" fill="#E1EDF5" d="M74.364,19.234c-0.246,0.062-0.729,0.092-1.452,0.092v0.576h7.743
		v-0.576c-0.261,0-0.476-0.031-0.645-0.092c-0.169-0.061-0.331-0.192-0.484-0.392l-7.028-8.71c1.966-2.013,3.103-3.157,3.41-3.434
		c1.337-1.198,2.666-1.797,3.986-1.797V4.325h-6.682v0.576c0.806,0,1.34,0.058,1.598,0.173c0.257,0.115,0.384,0.311,0.384,0.588
		c0,0.246-0.1,0.484-0.3,0.714c-0.092,0.108-0.269,0.292-0.53,0.553l-5,5.023V7.021c0-0.921,0.181-1.528,0.545-1.82
		c0.261-0.2,0.752-0.3,1.482-0.3V4.325h-7.765v0.576c0.83,0,1.382,0.153,1.659,0.461c0.23,0.261,0.345,0.653,0.345,1.175v11.153
		c0,0.66-0.177,1.098-0.53,1.313c-0.215,0.138-0.707,0.245-1.475,0.322v0.576h7.765v-0.576c-0.737-0.092-1.229-0.215-1.474-0.369
		c-0.369-0.23-0.553-0.653-0.553-1.267v-4.517l0.622-0.577l4.194,5.231c0.368,0.445,0.553,0.783,0.553,1.014
		C74.733,19.042,74.609,19.173,74.364,19.234z"/>
	<path fill-rule="evenodd" clip-rule="evenodd" fill="#E1EDF5" d="M44.546,12.586c-0.445-0.583-0.96-1.021-1.544-1.313l-3.388-1.686
		c-0.952-0.476-1.586-0.895-1.9-1.26c-0.315-0.361-0.472-0.849-0.472-1.463c0-0.707,0.246-1.252,0.737-1.629
		c0.492-0.376,1.068-0.564,1.729-0.564c1.213,0,2.258,0.519,3.133,1.552c0.646,0.772,1.106,1.686,1.383,2.734h0.645v-5h-0.691
		c-0.045,0.184-0.1,0.33-0.161,0.438c-0.123,0.23-0.322,0.346-0.599,0.346c-0.092,0-0.534-0.13-1.325-0.392
		c-0.792-0.261-1.548-0.392-2.27-0.392c-1.475,0-2.658,0.361-3.549,1.083c-1.029,0.849-1.544,2.001-1.544,3.465
		c0,0.845,0.169,1.566,0.507,2.169c0.584,1.029,1.729,1.951,3.434,2.769l1.544,0.737c0.921,0.446,1.544,0.814,1.867,1.106
		c0.476,0.449,0.714,1.017,0.714,1.708c0,0.753-0.25,1.375-0.749,1.859c-0.5,0.483-1.209,0.726-2.132,0.726
		c-1.352,0-2.45-0.53-3.295-1.59c-0.675-0.845-1.152-1.959-1.428-3.341h-0.668v5.691h0.668c0.062-0.23,0.138-0.418,0.23-0.564
		c0.092-0.146,0.246-0.219,0.461-0.219c0.645,0.184,1.278,0.361,1.901,0.53c0.622,0.169,1.302,0.253,2.039,0.253
		c1.92,0,3.403-0.553,4.447-1.663c0.845-0.891,1.268-1.943,1.268-3.16C45.537,14.426,45.206,13.447,44.546,12.586z"/>
	<path fill-rule="evenodd" clip-rule="evenodd" fill="#E1EDF5" d="M60.653,18.635c-0.261-0.353-0.668-1.19-1.222-2.512L54.293,4.003
		h-0.645L52.668,6.42l-4.136,10.21c-0.399,0.999-0.707,1.644-0.922,1.936c-0.307,0.415-0.752,0.668-1.337,0.76v0.576h4.679v-0.576
		c-0.538,0-0.953-0.054-1.245-0.161c-0.43-0.154-0.645-0.43-0.645-0.83c0-0.154,0.084-0.469,0.253-0.945
		c0.169-0.477,0.422-1.152,0.761-2.028h2.592h2.593c0.337,0.769,0.561,1.299,0.667,1.59c0.261,0.691,0.393,1.183,0.393,1.475
		c0,0.369-0.127,0.611-0.38,0.726c-0.254,0.115-0.741,0.173-1.464,0.173v0.576h7.467v-0.576
		C61.421,19.327,60.991,19.096,60.653,18.635z M52.668,14.465h-2.247l2.166-5.596l0.081,0.194l2.247,5.402H52.668z"/>
	<path fill-rule="evenodd" clip-rule="evenodd" fill="#E1EDF5" d="M132.549,19.327c-0.538,0-0.952-0.054-1.244-0.161
		c-0.431-0.154-0.646-0.43-0.646-0.83c0-0.154,0.084-0.469,0.254-0.945c0.169-0.477,0.422-1.152,0.76-2.028h2.593h2.592
		c0.339,0.769,0.562,1.299,0.669,1.59c0.262,0.691,0.392,1.183,0.392,1.475c0,0.369-0.126,0.611-0.38,0.726
		s-0.742,0.173-1.464,0.173v0.576h7.467v-0.576c-0.522,0-0.952-0.23-1.29-0.691c-0.262-0.353-0.669-1.19-1.222-2.512l-5.139-12.121
		h-0.646l-0.979,2.417l-4.136,10.21c-0.4,0.999-0.707,1.644-0.922,1.936c-0.063,0.085-0.133,0.164-0.208,0.235
		c-0.289,0.277-0.665,0.452-1.129,0.525v0.576H129h3.549V19.327z M134.185,8.869l0.081,0.194l2.247,5.402h-2.247h-2.247
		L134.185,8.869z"/>
	<path fill-rule="evenodd" clip-rule="evenodd" fill="#E1EDF5" d="M114.667,19.903v-0.576c-0.051,0-0.101-0.002-0.15-0.006
		c-0.127-0.011-0.246-0.035-0.356-0.074c-0.153-0.054-0.299-0.173-0.437-0.357l-4.633-6.567c1.029-0.323,1.79-0.676,2.281-1.061
		c0.891-0.691,1.336-1.651,1.336-2.88c0-1.306-0.553-2.308-1.658-3.007c-1.027-0.648-2.49-0.997-4.391-1.043
		c-0.146-0.003-0.297-0.005-0.449-0.005h-7.42v0.576c0.754,0,1.26,0.108,1.521,0.323c0.338,0.276,0.506,0.876,0.506,1.797v10.186
		c0,0.875-0.145,1.444-0.438,1.705c-0.199,0.169-0.729,0.307-1.59,0.415v0.576h7.789v-0.576c-0.83-0.108-1.359-0.261-1.591-0.461
		c-0.292-0.246-0.437-0.799-0.437-1.659V12.69h0.621l1.486,2.247l3.284,4.965h4.573H114.667z M107.777,11.331
		c-0.259,0.194-0.631,0.342-1.118,0.445c-0.554,0.118-1.258,0.177-2.107,0.177V6.077c0.061-0.415,0.165-0.679,0.311-0.795
		s0.518-0.173,1.117-0.173c0.243,0,0.47,0.018,0.68,0.052c0.615,0.1,1.092,0.349,1.43,0.743c0.452,0.53,0.68,1.371,0.68,2.523
		C108.769,9.871,108.438,10.839,107.777,11.331z"/>
	<path fill-rule="evenodd" clip-rule="evenodd" fill="#E1EDF5" d="M119.944,18.935c-0.215,0.169-0.769,0.299-1.66,0.392v0.576h7.998
		v-0.576c-0.893-0.092-1.453-0.23-1.684-0.415c-0.291-0.246-0.438-0.814-0.438-1.705v-4.24l4.401-7.167
		c0.134-0.219,0.279-0.39,0.438-0.513c0.042-0.032,0.084-0.061,0.128-0.086c0.206-0.124,0.541-0.223,1.002-0.3V4.325H129h-3.94
		v0.576c0.615,0,1.091,0.069,1.429,0.207c0.339,0.139,0.507,0.407,0.507,0.807c0,0.261-0.13,0.668-0.391,1.222
		c-0.154,0.338-0.322,0.646-0.508,0.921l-2.562,4.259l-2.761-5.342c-0.062-0.123-0.17-0.334-0.323-0.634s-0.23-0.519-0.23-0.657
		c0-0.338,0.11-0.553,0.335-0.646c0.223-0.092,0.732-0.138,1.531-0.138V4.325h-7.57h-0.148v0.576c0.05,0,0.1,0.002,0.148,0.006
		c0.536,0.04,1.001,0.299,1.395,0.778c0.062,0.077,0.162,0.238,0.301,0.483l4.216,7.651v3.388
		C120.428,18.098,120.267,18.674,119.944,18.935z"/>
	<path fill-rule="evenodd" clip-rule="evenodd" fill="#E1EDF5" d="M50.873,25.969c0.397,0,0.674,0.038,0.83,0.117
		c0.166,0.073,0.266,0.195,0.302,0.369c0.037,0.17,0.056,0.462,0.056,0.872v4.631h-0.021l-5.091-6.216H44.68v0.227
		c0.405,0,0.723,0.065,0.953,0.195c0.119,0.071,0.236,0.159,0.35,0.266c0.115,0.107,0.236,0.237,0.362,0.393v5.642
		c0,0.413-0.019,0.706-0.056,0.881c-0.036,0.175-0.138,0.301-0.307,0.382c-0.167,0.079-0.442,0.119-0.824,0.119v0.227h2.901v-0.227
		c-0.382,0-0.658-0.041-0.83-0.123c-0.166-0.086-0.265-0.217-0.301-0.39c-0.037-0.175-0.057-0.464-0.057-0.87v-4.96h0.025
		l5.463,6.723h0.227v-6.901c0-0.405,0.017-0.695,0.05-0.872c0.044-0.173,0.146-0.296,0.303-0.373
		c0.158-0.075,0.432-0.113,0.826-0.113v-0.227h-2.894V25.969z"/>
	<path fill-rule="evenodd" clip-rule="evenodd" fill="#E1EDF5" d="M134.735,29.277c-0.781-0.42-1.342-0.754-1.682-1.004
		c-0.34-0.25-0.511-0.567-0.511-0.947c0-0.238,0.069-0.455,0.209-0.655c0.139-0.198,0.323-0.353,0.55-0.465
		c0.229-0.109,0.463-0.165,0.704-0.165c0.442,0,0.836,0.104,1.18,0.313c0.177,0.111,0.33,0.236,0.464,0.378
		c0.133,0.143,0.25,0.308,0.35,0.498c0.101,0.19,0.18,0.384,0.234,0.582c0.057,0.196,0.083,0.403,0.083,0.62h0.227v-2.894h-0.227
		c-0.032,0.159-0.079,0.28-0.134,0.359c-0.059,0.081-0.154,0.121-0.29,0.121c-0.037,0-0.093-0.012-0.165-0.031l-0.291-0.105
		l-0.251-0.092c-0.409-0.167-0.786-0.251-1.131-0.251c-0.435,0-0.839,0.098-1.216,0.295c-0.377,0.196-0.68,0.466-0.91,0.814
		c-0.229,0.346-0.344,0.724-0.344,1.133c0,0.557,0.193,1.022,0.58,1.392c0.388,0.371,0.956,0.764,1.709,1.177
		c0.751,0.415,1.296,0.754,1.634,1.023c0.339,0.269,0.507,0.614,0.507,1.035c0,0.426-0.165,0.761-0.498,1.002
		c-0.331,0.242-0.719,0.362-1.16,0.362c-0.315,0-0.651-0.065-1.009-0.195c-0.355-0.133-0.677-0.373-0.958-0.721
		c-0.156-0.192-0.274-0.403-0.355-0.633c-0.094-0.258-0.143-0.53-0.143-0.818h-0.227v2.871h0.227c0-0.073,0.01-0.144,0.031-0.213
		c0.021-0.067,0.04-0.117,0.062-0.15c0.054-0.079,0.147-0.117,0.282-0.117c0.205,0,0.496,0.076,0.879,0.228
		c0.431,0.167,0.874,0.251,1.334,0.251c0.393,0,0.75-0.063,1.07-0.19c0.323-0.127,0.6-0.303,0.83-0.528
		c0.232-0.227,0.409-0.486,0.532-0.778c0.122-0.294,0.184-0.603,0.184-0.926c0-0.557-0.197-1.022-0.593-1.392
		S135.519,29.698,134.735,29.277z"/>
	<path fill-rule="evenodd" clip-rule="evenodd" fill="#E1EDF5" d="M104.566,25.969c0.397,0,0.674,0.038,0.829,0.117
		c0.166,0.073,0.266,0.195,0.302,0.369c0.036,0.17,0.056,0.462,0.056,0.872v5.139c0,0.413-0.02,0.706-0.056,0.881
		c-0.036,0.175-0.138,0.301-0.308,0.382c-0.166,0.079-0.441,0.119-0.823,0.119v0.227h3.553v-0.227c-0.381,0-0.657-0.041-0.83-0.123
		c-0.163-0.086-0.263-0.211-0.298-0.375c-0.035-0.165-0.051-0.458-0.051-0.885v-5.139c0-0.405,0.016-0.695,0.049-0.872
		c0.045-0.173,0.146-0.296,0.305-0.373c0.156-0.075,0.432-0.113,0.825-0.113v-0.227h-3.553V25.969z"/>
	<path fill-rule="evenodd" clip-rule="evenodd" fill="#E1EDF5" d="M37.387,24.735c0.132-0.132,0.2-0.293,0.2-0.482
		c0-0.188-0.065-0.347-0.196-0.48c-0.132-0.13-0.293-0.196-0.486-0.196c-0.188,0-0.347,0.066-0.479,0.196
		c-0.131,0.133-0.196,0.292-0.196,0.48c0,0.185,0.065,0.345,0.196,0.486c0.14,0.131,0.299,0.196,0.479,0.196
		C37.093,24.935,37.254,24.868,37.387,24.735z"/>
	<path fill-rule="evenodd" clip-rule="evenodd" fill="#E1EDF5" d="M142.815,26.455c0.044-0.173,0.146-0.296,0.304-0.373
		c0.157-0.075,0.432-0.113,0.825-0.113v-0.227h-3.553v0.227c0.397,0,0.674,0.038,0.83,0.117c0.165,0.073,0.265,0.195,0.301,0.369
		c0.037,0.17,0.057,0.462,0.057,0.872v5.139c0,0.413-0.02,0.706-0.057,0.881c-0.036,0.175-0.138,0.301-0.307,0.382
		c-0.167,0.079-0.441,0.119-0.824,0.119v0.227h3.553v-0.227c-0.381,0-0.657-0.041-0.83-0.123c-0.162-0.086-0.263-0.211-0.297-0.375
		c-0.035-0.165-0.053-0.458-0.053-0.885v-5.139C142.765,26.921,142.782,26.631,142.815,26.455z"/>
	<path fill-rule="evenodd" clip-rule="evenodd" fill="#E1EDF5" d="M39.497,25.969c0.397,0,0.674,0.038,0.83,0.117
		c0.165,0.073,0.265,0.195,0.302,0.369c0.036,0.17,0.056,0.462,0.056,0.872v3.097c0,0.501-0.025,0.938-0.074,1.314
		c-0.05,0.374-0.161,0.69-0.332,0.948c-0.23,0.34-0.546,0.597-0.947,0.772c-0.402,0.175-0.824,0.261-1.266,0.261
		c-0.444,0-0.845-0.104-1.206-0.311c-0.359-0.205-0.605-0.506-0.738-0.902c-0.13-0.396-0.195-1.014-0.195-1.853v-3.326
		c0-0.405,0.017-0.695,0.049-0.872c0.044-0.173,0.146-0.296,0.304-0.373c0.157-0.075,0.432-0.113,0.826-0.113v-0.227h-3.545v0.227
		c0.394,0,0.67,0.038,0.83,0.117c0.167,0.073,0.265,0.195,0.294,0.369c0.036,0.17,0.055,0.462,0.055,0.872v3.75
		c0,0.601,0.094,1.14,0.281,1.619c0.186,0.476,0.522,0.86,1.006,1.148c0.486,0.29,1.148,0.434,1.99,0.434
		c0.82,0,1.467-0.155,1.941-0.466c0.477-0.311,0.803-0.709,0.984-1.191c0.18-0.48,0.271-1.004,0.271-1.569v-3.725
		c0-0.405,0.017-0.695,0.05-0.872c0.044-0.173,0.146-0.296,0.303-0.373c0.158-0.075,0.432-0.113,0.826-0.113v-0.227h-2.895V25.969z"
		/>
	<path fill-rule="evenodd" clip-rule="evenodd" fill="#E1EDF5" d="M58.674,25.081c0.119-0.121,0.179-0.271,0.179-0.445
		c0-0.166-0.06-0.308-0.181-0.429c-0.121-0.121-0.26-0.181-0.422-0.181c-0.17,0-0.319,0.061-0.441,0.185
		c-0.123,0.123-0.184,0.265-0.184,0.425c0,0.17,0.061,0.318,0.184,0.441c0.123,0.123,0.271,0.184,0.441,0.184
		C58.415,25.262,58.555,25.202,58.674,25.081z"/>
	<path fill-rule="evenodd" clip-rule="evenodd" fill="#E1EDF5" d="M39.545,24.739c0.136-0.132,0.203-0.294,0.203-0.486
		c0-0.188-0.065-0.347-0.194-0.48c-0.128-0.13-0.29-0.196-0.482-0.196c-0.192,0-0.353,0.068-0.486,0.204
		c-0.13,0.134-0.195,0.292-0.195,0.472c0,0.188,0.067,0.35,0.203,0.482c0.135,0.133,0.294,0.2,0.478,0.2
		C39.253,24.935,39.411,24.87,39.545,24.739z"/>
	<path fill-rule="evenodd" clip-rule="evenodd" fill="#E1EDF5" d="M56.56,25.969c0.397,0,0.673,0.038,0.83,0.117
		c0.165,0.073,0.265,0.195,0.301,0.369c0.037,0.17,0.056,0.462,0.056,0.872v5.139c0,0.413-0.019,0.706-0.056,0.881
		c-0.036,0.175-0.138,0.301-0.307,0.382c-0.167,0.079-0.442,0.119-0.824,0.119v0.227h3.552v-0.227c-0.38,0-0.656-0.041-0.829-0.123
		c-0.164-0.086-0.263-0.211-0.298-0.375c-0.035-0.165-0.052-0.458-0.052-0.885v-5.139c0-0.405,0.017-0.695,0.05-0.872
		c0.044-0.173,0.146-0.296,0.303-0.373c0.158-0.075,0.433-0.113,0.826-0.113v-0.227H56.56V25.969z"/>
	<path fill-rule="evenodd" clip-rule="evenodd" fill="#E1EDF5" d="M141.64,24.211c-0.123,0.123-0.184,0.265-0.184,0.425
		c0,0.17,0.061,0.318,0.184,0.441c0.123,0.123,0.271,0.184,0.442,0.184c0.165,0,0.306-0.06,0.424-0.181
		c0.12-0.121,0.179-0.271,0.179-0.445c0-0.166-0.059-0.308-0.181-0.429c-0.12-0.121-0.261-0.181-0.422-0.181
		C141.911,24.027,141.763,24.088,141.64,24.211z"/>
	<path fill-rule="evenodd" clip-rule="evenodd" fill="#E1EDF5" d="M91.138,33.102c-0.18-0.198-0.394-0.47-0.639-0.818l-1.638-2.266
		c0.599-0.123,1.093-0.365,1.482-0.726c0.389-0.359,0.582-0.822,0.582-1.388c0-0.308-0.078-0.625-0.234-0.953
		c-0.155-0.327-0.447-0.611-0.877-0.851c-0.406-0.226-0.958-0.345-1.656-0.358c-0.042,0-0.083-0.001-0.126-0.001h-3.6v0.227
		c0.398,0,0.674,0.038,0.829,0.117c0.166,0.073,0.266,0.195,0.302,0.369c0.037,0.17,0.056,0.462,0.056,0.872v5.139
		c0,0.413-0.02,0.706-0.056,0.881c-0.036,0.175-0.138,0.301-0.307,0.382c-0.167,0.079-0.442,0.119-0.824,0.119v0.227h3.553v-0.227
		c-0.383,0-0.659-0.041-0.83-0.123c-0.165-0.086-0.265-0.217-0.301-0.39c-0.037-0.175-0.055-0.464-0.055-0.87v-2.293h0.854
		l0.506,0.7l2.315,3.202h2.242v-0.227c-0.376-0.036-0.689-0.121-0.937-0.251C91.53,33.463,91.317,33.3,91.138,33.102z
		 M88.158,29.628c-0.331,0.092-0.693,0.138-1.084,0.138h-0.276v-3.472c0.409-0.065,0.752-0.098,1.031-0.098
		c0.115,0,0.225,0.009,0.33,0.026c0.355,0.059,0.653,0.218,0.893,0.475c0.312,0.334,0.468,0.753,0.468,1.256
		c0,0.438-0.117,0.792-0.35,1.063c-0.235,0.269-0.533,0.463-0.896,0.577C88.235,29.606,88.197,29.618,88.158,29.628z"/>
	<path fill-rule="evenodd" clip-rule="evenodd" fill="#E1EDF5" d="M98.911,29.277c-0.781-0.42-1.342-0.754-1.683-1.004
		c-0.34-0.25-0.511-0.567-0.511-0.947c0-0.238,0.069-0.455,0.209-0.655c0.139-0.198,0.322-0.353,0.549-0.465
		c0.229-0.109,0.463-0.165,0.705-0.165c0.441,0,0.836,0.104,1.18,0.313c0.177,0.111,0.33,0.236,0.464,0.378
		c0.133,0.143,0.25,0.308,0.351,0.498c0.099,0.19,0.178,0.384,0.234,0.582c0.055,0.196,0.082,0.403,0.082,0.62h0.227v-2.894h-0.227
		c-0.033,0.159-0.078,0.28-0.135,0.359c-0.058,0.081-0.153,0.121-0.29,0.121c-0.036,0-0.093-0.012-0.165-0.031l-0.289-0.105
		L99.36,25.79c-0.409-0.167-0.785-0.251-1.132-0.251c-0.434,0-0.839,0.098-1.215,0.295c-0.376,0.196-0.681,0.466-0.911,0.814
		c-0.229,0.346-0.343,0.724-0.343,1.133c0,0.557,0.193,1.022,0.579,1.392c0.388,0.371,0.957,0.764,1.71,1.177
		c0.751,0.415,1.296,0.754,1.634,1.023s0.507,0.614,0.507,1.035c0,0.426-0.165,0.761-0.497,1.002s-0.721,0.362-1.162,0.362
		c-0.314,0-0.65-0.065-1.008-0.195c-0.355-0.133-0.676-0.373-0.958-0.721c-0.155-0.192-0.274-0.403-0.355-0.633
		c-0.095-0.258-0.142-0.53-0.142-0.818h-0.227v2.871h0.227c0-0.073,0.009-0.144,0.029-0.213c0.021-0.067,0.041-0.117,0.062-0.15
		c0.053-0.079,0.147-0.117,0.282-0.117c0.204,0,0.497,0.076,0.879,0.228c0.431,0.167,0.874,0.251,1.333,0.251
		c0.394,0,0.75-0.063,1.071-0.19c0.322-0.127,0.6-0.303,0.829-0.528c0.232-0.227,0.41-0.486,0.533-0.778
		c0.122-0.294,0.184-0.603,0.184-0.926c0-0.557-0.197-1.022-0.594-1.392C100.282,30.094,99.694,29.698,98.911,29.277z"/>
	<path fill-rule="evenodd" clip-rule="evenodd" fill="#E1EDF5" d="M111.267,25.742l-0.098,1.936h0.221
		c0.05-0.447,0.181-0.793,0.394-1.039c0.214-0.246,0.562-0.369,1.045-0.369h1.235v6.195c0,0.413-0.02,0.706-0.057,0.881
		c-0.036,0.175-0.138,0.301-0.307,0.382c-0.168,0.079-0.442,0.119-0.824,0.119v0.227h3.553v-0.227c-0.382,0-0.659-0.041-0.829-0.123
		c-0.165-0.086-0.266-0.217-0.302-0.39c-0.037-0.175-0.056-0.464-0.056-0.87V26.27h1.26c0.446,0,0.792,0.119,1.038,0.357
		c0.246,0.236,0.369,0.588,0.369,1.05h0.227l-0.073-1.936H111.267z"/>
	<path fill-rule="evenodd" clip-rule="evenodd" fill="#E1EDF5" d="M106.681,25.081c0.119-0.121,0.179-0.271,0.179-0.445
		c0-0.166-0.06-0.308-0.181-0.429c-0.121-0.121-0.262-0.181-0.423-0.181c-0.171,0-0.319,0.061-0.441,0.185
		c-0.123,0.123-0.185,0.265-0.185,0.425c0,0.17,0.062,0.318,0.185,0.441c0.122,0.123,0.271,0.184,0.441,0.184
		C106.421,25.262,106.562,25.202,106.681,25.081z"/>
	<path fill-rule="evenodd" clip-rule="evenodd" fill="#E1EDF5" d="M80.734,32.962c-0.171,0.213-0.377,0.374-0.615,0.487
		c-0.237,0.114-0.538,0.169-0.902,0.169h-1.709c-0.265,0-0.446-0.04-0.54-0.123c-0.094-0.094-0.143-0.261-0.143-0.503v-3.047h1.666
		c0.368,0,0.648,0.027,0.837,0.083c0.188,0.056,0.332,0.169,0.43,0.342c0.061,0.105,0.108,0.225,0.14,0.355
		c0.033,0.132,0.05,0.282,0.05,0.455h0.226v-2.919h-0.226c0,0.177-0.018,0.331-0.05,0.465c-0.032,0.133-0.077,0.25-0.135,0.354
		c-0.098,0.175-0.244,0.288-0.436,0.338c-0.194,0.048-0.472,0.073-0.837,0.073h-1.666v-3.293h2.115c0.343,0,0.603,0.014,0.779,0.042
		c0.188,0.025,0.346,0.081,0.471,0.167c0.125,0.086,0.229,0.221,0.312,0.405c0.081,0.185,0.147,0.433,0.201,0.744h0.252
		l-0.098-1.813h-6.397v0.227c0.398,0,0.675,0.038,0.83,0.117c0.166,0.073,0.266,0.195,0.302,0.369
		c0.037,0.17,0.055,0.462,0.055,0.872v5.139c0,0.413-0.019,0.706-0.055,0.881c-0.036,0.175-0.138,0.301-0.308,0.382
		c-0.167,0.079-0.441,0.119-0.824,0.119v0.227h6.447l0.701-2.089h-0.223C81.124,32.422,80.906,32.749,80.734,32.962z"/>
	<path fill-rule="evenodd" clip-rule="evenodd" fill="#E1EDF5" d="M127.31,32.962c-0.171,0.213-0.377,0.374-0.614,0.487
		c-0.238,0.114-0.538,0.169-0.902,0.169h-1.709c-0.266,0-0.446-0.04-0.54-0.123c-0.094-0.094-0.143-0.261-0.143-0.503v-3.047h1.666
		c0.368,0,0.648,0.027,0.836,0.083c0.188,0.056,0.332,0.169,0.432,0.342c0.061,0.105,0.107,0.225,0.139,0.355
		c0.033,0.132,0.051,0.282,0.051,0.455h0.227v-2.919h-0.227c0,0.177-0.018,0.331-0.051,0.465c-0.031,0.133-0.076,0.25-0.133,0.354
		c-0.1,0.175-0.244,0.288-0.438,0.338c-0.193,0.048-0.473,0.073-0.836,0.073h-1.666v-3.293h2.115c0.344,0,0.603,0.014,0.778,0.042
		c0.189,0.025,0.347,0.081,0.472,0.167c0.125,0.086,0.229,0.221,0.311,0.405c0.081,0.185,0.148,0.433,0.201,0.744h0.252
		l-0.098-1.813h-6.396v0.227c0.396,0,0.674,0.038,0.83,0.117c0.164,0.073,0.264,0.195,0.301,0.369
		c0.037,0.17,0.057,0.462,0.057,0.872v5.139c0,0.413-0.02,0.706-0.057,0.881c-0.037,0.175-0.138,0.301-0.307,0.382
		c-0.168,0.079-0.442,0.119-0.824,0.119v0.227h6.445l0.701-2.089h-0.223C127.7,32.422,127.481,32.749,127.31,32.962z"/>
	<path fill-rule="evenodd" clip-rule="evenodd" fill="#E1EDF5" d="M69.204,25.969c0.112,0,0.215,0.015,0.313,0.045
		c0.1,0.031,0.198,0.073,0.295,0.127c0.181,0.106,0.271,0.258,0.271,0.453c0,0.144-0.117,0.505-0.35,1.083l-1.92,4.688l-2.031-4.738
		l-0.154-0.355c-0.065-0.145-0.115-0.276-0.151-0.397c-0.035-0.122-0.052-0.231-0.052-0.329c0-0.228,0.076-0.375,0.228-0.432
		c0.152-0.06,0.386-0.107,0.707-0.146v-0.227h-3.423v0.227c0.14,0,0.267,0.015,0.382,0.045c0.113,0.031,0.214,0.072,0.299,0.119
		c0.161,0.091,0.278,0.206,0.357,0.346c0.062,0.105,0.176,0.355,0.343,0.749l3.073,7.049h0.228l2.838-6.975
		c0.164-0.407,0.336-0.722,0.519-0.95c0.182-0.227,0.445-0.355,0.791-0.384v-0.227h-2.564V25.969z"/>
	<path fill-rule="evenodd" clip-rule="evenodd" fill="#E1EDF5" d="M17.601,26.881l1.288-1.48c2.348-2.7,2.928-3.126,0.21-4.439
		l-1.498-0.723l-1.705-0.824l-0.854-0.413h0l-2.63-1.287l-0.275-0.135c-3.019-1.477-3.874-1.765-1.553-4.51l1.828-2.161l3.484-4.12
		l1.705-2.018l0.622-0.735c-0.206-0.051-0.413-0.096-0.622-0.133c-0.265-0.048-0.533-0.085-0.804-0.111l-0.901,1.044l-3.484,4.037
		l-3.084,3.575c-2.331,2.7-2.908,3.126-0.182,4.439l3.266,1.572l0.804,0.387h0l2.68,1.306l0.235,0.115
		c0.569,0.277,1.061,0.513,1.47,0.73c1.769,0.941,1.983,1.551,0.112,3.78l-0.112,0.133l-1.705,2.033l-3.484,4.153l-1.534,1.828
		c0.335,0.188,0.677,0.357,1.027,0.506l0.507-0.583l3.484-4.006L17.601,26.881z"/>
	<path fill-rule="evenodd" clip-rule="evenodd" fill="#E1EDF5" d="M15.496,25.26c0.14-0.162,0.272-0.315,0.399-0.461
		c1.93-2.225,2.322-2.716,0-3.871c-0.071-0.035-0.143-0.071-0.218-0.107l-3.266-1.572l-0.805-0.387h0L8.692,17.44
		c-3.029-1.476-3.885-1.765-1.583-4.51l5.302-6.319l2.352-2.803c-0.81,0.089-1.596,0.278-2.352,0.556
		c-5.058,1.856-8.75,7.705-8.75,14.635c0,5.564,2.381,10.431,5.938,13.094l2.812-3.259L15.496,25.26z"/>
	<path fill-rule="evenodd" clip-rule="evenodd" fill="#E1EDF5" d="M22.332,25.548c2.366-2.701,2.949-3.127,0.24-4.439l-4.043-1.959
		l0,0l-0.927-0.455l-1.705-0.837l-0.264-0.129c-3.009-1.477-3.861-1.766-1.523-4.511l1.787-2.096l1.705-2.002l3.373-3.959
		c-0.386-0.224-0.782-0.424-1.188-0.597l-2.185,2.512l-1.705,1.96l-3.091,3.555c-0.137,0.158-0.268,0.307-0.393,0.45
		c-1.962,2.247-2.358,2.731,0,3.9c0.059,0.029,0.12,0.059,0.182,0.089l3.302,1.595l0.754,0.364l0,0l0.951,0.465l1.955,0.956
		c3.019,1.476,3.873,1.765,1.552,4.51l-3.507,4.148l-1.705,2.017l-2.428,2.872c0.424,0.105,0.857,0.184,1.296,0.231l1.132-1.292
		l1.705-1.947L22.332,25.548z"/>
	<path fill-rule="evenodd" clip-rule="evenodd" fill="#E1EDF5" d="M22.229,6.004l-4.628,5.283l-1.268,1.448
		c-0.153,0.175-0.299,0.34-0.437,0.497c-1.937,2.202-2.316,2.69,0,3.845c0.064,0.032,0.129,0.064,0.197,0.097l1.508,0.731
		l2.536,1.229h0l2.896,1.421c3.009,1.477,3.861,1.766,1.522,4.511l-6.954,8.162l-0.833,0.977c0.28-0.026,0.558-0.065,0.833-0.114
		c5.9-1.064,10.433-7.416,10.433-15.093C28.034,13.504,25.712,8.688,22.229,6.004z"/>
	<path fill-rule="evenodd" clip-rule="evenodd" fill="#E1EDF5" d="M15.871,1.023h-0.001c-8.436,0-14.93,7.678-14.93,17.898
		c0,10.22,6.494,18.055,14.93,18.055h0.001c8.435-0.001,14.931-7.835,14.931-18.055S24.306,1.024,15.871,1.023z M15.871,35.701
		h-0.001c-7.732,0-13.656-7.208-13.656-16.779c0-9.57,5.924-16.624,13.656-16.624h0.001c7.731,0,13.657,7.054,13.657,16.624
		S23.602,35.7,15.871,35.701z"/>
</g>
</svg>
